<?xml version="1.0" standalone="no"?>
<!DOCTYPE svg PUBLIC "-//W3C//DTD SVG 20010904//EN"
 "http://www.w3.org/TR/2001/REC-SVG-20010904/DTD/svg10.dtd">
<svg version="1.0" xmlns="http://www.w3.org/2000/svg"
 width="500.000000pt" height="500.000000pt" viewBox="0 0 500.000000 500.000000"
 preserveAspectRatio="xMidYMid meet">

<g transform="translate(0.000000,500.000000) scale(0.100000,-0.100000)"
fill="#000000" stroke="none">
<path d="M0 2500 l0 -2500 2500 0 2500 0 0 2500 0 2500 -2500 0 -2500 0 0
-2500z m2930 1108 c48 -33 72 -70 77 -121 5 -39 -36 -169 -332 -1058 -186
-558 -346 -1028 -356 -1045 -10 -17 -36 -43 -57 -58 -103 -71 -252 7 -252 133
0 34 90 317 335 1056 184 556 344 1025 355 1043 30 49 75 72 141 72 42 0 65
-6 89 -22z m-1173 -344 c39 -29 63 -65 73 -108 18 -79 10 -90 -303 -404 l-292
-292 287 -288 c157 -158 291 -298 298 -311 36 -72 -5 -182 -83 -220 -101 -49
-107 -45 -515 362 -194 194 -360 365 -369 381 -24 45 -20 107 10 157 30 51
674 696 727 729 44 27 127 24 167 -6z m1664 -3 c24 -16 198 -183 386 -372 376
-379 377 -380 353 -471 -10 -38 -57 -88 -383 -415 -329 -328 -376 -372 -410
-379 -119 -21 -230 97 -197 211 10 33 63 92 301 330 l288 290 -288 290 c-255
256 -290 295 -301 335 -39 147 123 264 251 181z"/>
</g>
</svg>
